<svg width="26" height="26" viewBox="0 0 26 26" fill="none" xmlns="http://www.w3.org/2000/svg"><path fill-rule="evenodd" clip-rule="evenodd" d="m5.57 17.23 1.18-1.18c.38-.38.59-.88.59-1.42V9.96a4.73 4.73 0 0 1 5.36-4.69 4.85 4.85 0 0 1 4.08 4.9v4.46c0 .54.2 1.04.58 1.42l1.18 1.18H5.57Zm8.49 2.34c0 .9-.92 1.66-2 1.66-1.09 0-2-.76-2-1.66v-.34h4v.34Zm6.52-3.13-1.8-1.8v-4.47c0-3.48-2.5-6.44-5.82-6.88a6.72 6.72 0 0 0-7.62 6.67v4.67l-1.8 1.8a1.63 1.63 0 0 0 1.15 2.8h3.37v.34c0 2.02 1.8 3.66 4 3.66s4-1.64 4-3.66v-.34h3.36c.66 0 1.26-.4 1.51-1.01.26-.61.12-1.31-.35-1.78Z" fill="#768298"/><rect x="12.56" y=".73" width="12" height="12" rx="6" fill="#FF3332"/><path d="M18.5 9.8c-.3 0-.58-.04-.83-.14-.24-.09-.44-.2-.61-.36a1.74 1.74 0 0 1-.56-1.26h.64c.01.17.05.33.1.48a1.17 1.17 0 0 0 .69.63c.16.06.36.1.58.1.46 0 .79-.1 1-.3.2-.2.3-.48.3-.81 0-.74-.4-1.12-1.2-1.12h-.43v-.58h.4c.37 0 .64-.08.81-.25.17-.17.26-.41.26-.73 0-.27-.09-.5-.26-.67-.17-.2-.43-.29-.78-.29a1.18 1.18 0 0 0-1.26 1.08h-.61a1.67 1.67 0 0 1 .54-1.16 1.97 1.97 0 0 1 1.33-.49c.27 0 .51.05.73.14.2.07.39.19.53.33.15.14.26.3.34.48.08.18.12.37.12.57 0 .32-.09.59-.26.8-.17.19-.38.34-.65.45.34.09.6.25.8.48.2.24.3.56.3.96 0 .26-.04.5-.14.7-.1.2-.25.38-.43.52-.17.15-.39.25-.64.33-.25.07-.52.11-.81.11Z" fill="#fff"/><rect x="12.56" y=".73" width="12" height="12" rx="6" stroke="#fff"/></svg>